<mxfile host="app.diagrams.net" modified="2024-09-11T09:29:31.736Z" agent="Mozilla/5.0 (Windows NT 10.0; Win64; x64) AppleWebKit/537.36 (KHTML, like Gecko) Chrome/126.0.0.0 YaBrowser/24.7.0.0 Safari/537.36" etag="e_dCUQRTwxcxB0L9OpUn" version="24.4.4" type="device">
  <diagram name="Страница — 1" id="kKsLJAYhnf5yHx6pS-Rv">
    <mxGraphModel dx="2333" dy="1207" grid="1" gridSize="10" guides="1" tooltips="1" connect="1" arrows="1" fold="1" page="1" pageScale="1" pageWidth="827" pageHeight="1169" math="0" shadow="0">
      <root>
        <mxCell id="0" />
        <mxCell id="1" parent="0" />
        <mxCell id="L4vhiQLJE88F6BMQA0AO-1" value="Концептуальная карта" style="rounded=0;whiteSpace=wrap;html=1;" vertex="1" parent="1">
          <mxGeometry x="320" y="80" width="200" height="80" as="geometry" />
        </mxCell>
        <mxCell id="L4vhiQLJE88F6BMQA0AO-2" value="Структурированные знания" style="rounded=0;whiteSpace=wrap;html=1;" vertex="1" parent="1">
          <mxGeometry x="160" y="240" width="200" height="80" as="geometry" />
        </mxCell>
        <mxCell id="L4vhiQLJE88F6BMQA0AO-3" value="" style="endArrow=classic;html=1;rounded=0;exitX=0.25;exitY=1;exitDx=0;exitDy=0;entryX=0.5;entryY=0;entryDx=0;entryDy=0;" edge="1" parent="1" source="L4vhiQLJE88F6BMQA0AO-1" target="L4vhiQLJE88F6BMQA0AO-2">
          <mxGeometry width="50" height="50" relative="1" as="geometry">
            <mxPoint x="430" y="230" as="sourcePoint" />
            <mxPoint x="480" y="180" as="targetPoint" />
          </mxGeometry>
        </mxCell>
        <mxCell id="L4vhiQLJE88F6BMQA0AO-4" value="Концепции" style="rounded=0;whiteSpace=wrap;html=1;" vertex="1" parent="1">
          <mxGeometry y="400" width="200" height="80" as="geometry" />
        </mxCell>
        <mxCell id="L4vhiQLJE88F6BMQA0AO-5" value="" style="endArrow=classic;html=1;rounded=0;exitX=0.25;exitY=1;exitDx=0;exitDy=0;entryX=0.5;entryY=0;entryDx=0;entryDy=0;" edge="1" parent="1" source="L4vhiQLJE88F6BMQA0AO-2" target="L4vhiQLJE88F6BMQA0AO-4">
          <mxGeometry width="50" height="50" relative="1" as="geometry">
            <mxPoint x="30" y="340" as="sourcePoint" />
            <mxPoint x="80" y="290" as="targetPoint" />
          </mxGeometry>
        </mxCell>
        <mxCell id="L4vhiQLJE88F6BMQA0AO-6" value="Состоит из" style="text;html=1;align=center;verticalAlign=middle;resizable=0;points=[];autosize=1;strokeColor=none;fillColor=none;" vertex="1" parent="1">
          <mxGeometry x="80" y="338" width="80" height="30" as="geometry" />
        </mxCell>
        <mxCell id="L4vhiQLJE88F6BMQA0AO-7" value="Это" style="text;html=1;align=center;verticalAlign=middle;resizable=0;points=[];autosize=1;strokeColor=none;fillColor=none;" vertex="1" parent="1">
          <mxGeometry x="320" y="190" width="40" height="30" as="geometry" />
        </mxCell>
        <mxCell id="L4vhiQLJE88F6BMQA0AO-8" value="Лучшее понимание" style="rounded=0;whiteSpace=wrap;html=1;" vertex="1" parent="1">
          <mxGeometry x="320" y="400" width="200" height="80" as="geometry" />
        </mxCell>
        <mxCell id="L4vhiQLJE88F6BMQA0AO-9" value="" style="endArrow=classic;html=1;rounded=0;exitX=0.75;exitY=1;exitDx=0;exitDy=0;entryX=0.5;entryY=0;entryDx=0;entryDy=0;" edge="1" parent="1" source="L4vhiQLJE88F6BMQA0AO-2" target="L4vhiQLJE88F6BMQA0AO-8">
          <mxGeometry width="50" height="50" relative="1" as="geometry">
            <mxPoint x="400" y="380" as="sourcePoint" />
            <mxPoint x="450" y="330" as="targetPoint" />
          </mxGeometry>
        </mxCell>
        <mxCell id="L4vhiQLJE88F6BMQA0AO-10" value="Для чего" style="text;html=1;align=center;verticalAlign=middle;resizable=0;points=[];autosize=1;strokeColor=none;fillColor=none;" vertex="1" parent="1">
          <mxGeometry x="375" y="338" width="70" height="30" as="geometry" />
        </mxCell>
        <mxCell id="L4vhiQLJE88F6BMQA0AO-11" value="Утверждения" style="rounded=0;whiteSpace=wrap;html=1;" vertex="1" parent="1">
          <mxGeometry y="560" width="200" height="80" as="geometry" />
        </mxCell>
        <mxCell id="L4vhiQLJE88F6BMQA0AO-12" value="" style="endArrow=classic;html=1;rounded=0;exitX=0.5;exitY=1;exitDx=0;exitDy=0;entryX=0.5;entryY=0;entryDx=0;entryDy=0;" edge="1" parent="1" source="L4vhiQLJE88F6BMQA0AO-4" target="L4vhiQLJE88F6BMQA0AO-11">
          <mxGeometry width="50" height="50" relative="1" as="geometry">
            <mxPoint x="160" y="560" as="sourcePoint" />
            <mxPoint x="210" y="510" as="targetPoint" />
          </mxGeometry>
        </mxCell>
        <mxCell id="L4vhiQLJE88F6BMQA0AO-13" value="Состоят из" style="text;html=1;align=center;verticalAlign=middle;resizable=0;points=[];autosize=1;strokeColor=none;fillColor=none;" vertex="1" parent="1">
          <mxGeometry x="20" y="500" width="80" height="30" as="geometry" />
        </mxCell>
        <mxCell id="L4vhiQLJE88F6BMQA0AO-14" value="Диаграмма" style="rounded=0;whiteSpace=wrap;html=1;" vertex="1" parent="1">
          <mxGeometry x="600" y="240" width="200" height="80" as="geometry" />
        </mxCell>
        <mxCell id="L4vhiQLJE88F6BMQA0AO-15" value="Дз: выбрать тему и построить карту" style="text;html=1;align=center;verticalAlign=middle;resizable=0;points=[];autosize=1;strokeColor=none;fillColor=none;" vertex="1" parent="1">
          <mxGeometry width="220" height="30" as="geometry" />
        </mxCell>
        <mxCell id="L4vhiQLJE88F6BMQA0AO-16" value="" style="endArrow=classic;html=1;rounded=0;exitX=0.75;exitY=1;exitDx=0;exitDy=0;entryX=0.25;entryY=0;entryDx=0;entryDy=0;" edge="1" parent="1" source="L4vhiQLJE88F6BMQA0AO-1" target="L4vhiQLJE88F6BMQA0AO-14">
          <mxGeometry width="50" height="50" relative="1" as="geometry">
            <mxPoint x="620" y="270" as="sourcePoint" />
            <mxPoint x="670" y="220" as="targetPoint" />
          </mxGeometry>
        </mxCell>
        <mxCell id="L4vhiQLJE88F6BMQA0AO-17" value="Это" style="text;html=1;align=center;verticalAlign=middle;resizable=0;points=[];autosize=1;strokeColor=none;fillColor=none;" vertex="1" parent="1">
          <mxGeometry x="560" y="170" width="40" height="30" as="geometry" />
        </mxCell>
        <mxCell id="L4vhiQLJE88F6BMQA0AO-18" value="Быстрое обучение" style="rounded=0;whiteSpace=wrap;html=1;" vertex="1" parent="1">
          <mxGeometry x="320" y="560" width="200" height="80" as="geometry" />
        </mxCell>
        <mxCell id="L4vhiQLJE88F6BMQA0AO-19" value="" style="endArrow=classic;html=1;rounded=0;exitX=0.5;exitY=1;exitDx=0;exitDy=0;entryX=0.5;entryY=0;entryDx=0;entryDy=0;" edge="1" parent="1" source="L4vhiQLJE88F6BMQA0AO-8" target="L4vhiQLJE88F6BMQA0AO-18">
          <mxGeometry width="50" height="50" relative="1" as="geometry">
            <mxPoint x="580" y="530" as="sourcePoint" />
            <mxPoint x="630" y="480" as="targetPoint" />
          </mxGeometry>
        </mxCell>
        <mxCell id="L4vhiQLJE88F6BMQA0AO-20" value="Для чего" style="text;html=1;align=center;verticalAlign=middle;resizable=0;points=[];autosize=1;strokeColor=none;fillColor=none;" vertex="1" parent="1">
          <mxGeometry x="420" y="500" width="70" height="30" as="geometry" />
        </mxCell>
        <mxCell id="L4vhiQLJE88F6BMQA0AO-21" value="Узлы" style="rounded=0;whiteSpace=wrap;html=1;" vertex="1" parent="1">
          <mxGeometry x="600" y="400" width="200" height="80" as="geometry" />
        </mxCell>
        <mxCell id="L4vhiQLJE88F6BMQA0AO-22" value="" style="endArrow=classic;html=1;rounded=0;exitX=0.5;exitY=1;exitDx=0;exitDy=0;entryX=0.5;entryY=0;entryDx=0;entryDy=0;" edge="1" parent="1" source="L4vhiQLJE88F6BMQA0AO-14" target="L4vhiQLJE88F6BMQA0AO-21">
          <mxGeometry width="50" height="50" relative="1" as="geometry">
            <mxPoint x="750" y="390" as="sourcePoint" />
            <mxPoint x="800" y="340" as="targetPoint" />
          </mxGeometry>
        </mxCell>
        <mxCell id="L4vhiQLJE88F6BMQA0AO-23" value="Состоит из" style="text;html=1;align=center;verticalAlign=middle;resizable=0;points=[];autosize=1;strokeColor=none;fillColor=none;" vertex="1" parent="1">
          <mxGeometry x="620" y="340" width="80" height="30" as="geometry" />
        </mxCell>
        <mxCell id="L4vhiQLJE88F6BMQA0AO-24" value="Отдельные знания" style="rounded=0;whiteSpace=wrap;html=1;" vertex="1" parent="1">
          <mxGeometry x="760" y="560" width="200" height="80" as="geometry" />
        </mxCell>
        <mxCell id="L4vhiQLJE88F6BMQA0AO-25" value="" style="endArrow=classic;html=1;rounded=0;exitX=0.75;exitY=1;exitDx=0;exitDy=0;entryX=0.5;entryY=0;entryDx=0;entryDy=0;" edge="1" parent="1" source="L4vhiQLJE88F6BMQA0AO-21" target="L4vhiQLJE88F6BMQA0AO-24">
          <mxGeometry width="50" height="50" relative="1" as="geometry">
            <mxPoint x="900" y="490" as="sourcePoint" />
            <mxPoint x="950" y="440" as="targetPoint" />
          </mxGeometry>
        </mxCell>
        <mxCell id="L4vhiQLJE88F6BMQA0AO-26" value="Что представляют" style="text;html=1;align=center;verticalAlign=middle;resizable=0;points=[];autosize=1;strokeColor=none;fillColor=none;" vertex="1" parent="1">
          <mxGeometry x="795" y="498" width="130" height="30" as="geometry" />
        </mxCell>
        <mxCell id="L4vhiQLJE88F6BMQA0AO-27" value="" style="endArrow=classic;html=1;rounded=0;exitX=0;exitY=0.5;exitDx=0;exitDy=0;entryX=1;entryY=0.5;entryDx=0;entryDy=0;" edge="1" parent="1" source="L4vhiQLJE88F6BMQA0AO-24" target="L4vhiQLJE88F6BMQA0AO-18">
          <mxGeometry width="50" height="50" relative="1" as="geometry">
            <mxPoint x="810" y="610" as="sourcePoint" />
            <mxPoint x="860" y="560" as="targetPoint" />
          </mxGeometry>
        </mxCell>
        <mxCell id="L4vhiQLJE88F6BMQA0AO-28" value="Чему способствуют" style="text;html=1;align=center;verticalAlign=middle;resizable=0;points=[];autosize=1;strokeColor=none;fillColor=none;" vertex="1" parent="1">
          <mxGeometry x="570" y="560" width="130" height="30" as="geometry" />
        </mxCell>
        <mxCell id="L4vhiQLJE88F6BMQA0AO-30" value="Тема: сравнение 2-ух паттернов программирования (от 25 узлов)" style="text;html=1;align=center;verticalAlign=middle;resizable=0;points=[];autosize=1;strokeColor=none;fillColor=none;" vertex="1" parent="1">
          <mxGeometry y="30" width="390" height="30" as="geometry" />
        </mxCell>
        <mxCell id="L4vhiQLJE88F6BMQA0AO-31" value="Будет выглядеть как ядро, от корого идут 2 ветви (если что-то повторяется, то делать 1 перекрёсный узел)" style="text;html=1;align=center;verticalAlign=middle;resizable=0;points=[];autosize=1;strokeColor=none;fillColor=none;" vertex="1" parent="1">
          <mxGeometry x="390" y="30" width="620" height="30" as="geometry" />
        </mxCell>
        <mxCell id="L4vhiQLJE88F6BMQA0AO-35" value="" style="endArrow=classic;html=1;rounded=0;exitX=0;exitY=1;exitDx=0;exitDy=0;entryX=1;entryY=0.5;entryDx=0;entryDy=0;" edge="1" parent="1" source="L4vhiQLJE88F6BMQA0AO-8" target="L4vhiQLJE88F6BMQA0AO-11">
          <mxGeometry width="50" height="50" relative="1" as="geometry">
            <mxPoint x="250" y="740" as="sourcePoint" />
            <mxPoint x="300" y="690" as="targetPoint" />
          </mxGeometry>
        </mxCell>
        <mxCell id="L4vhiQLJE88F6BMQA0AO-36" value="На чём основывается" style="text;html=1;align=center;verticalAlign=middle;resizable=0;points=[];autosize=1;strokeColor=none;fillColor=none;" vertex="1" parent="1">
          <mxGeometry x="150" y="498" width="140" height="30" as="geometry" />
        </mxCell>
        <mxCell id="L4vhiQLJE88F6BMQA0AO-37" value="Заверенные знания" style="rounded=0;whiteSpace=wrap;html=1;" vertex="1" parent="1">
          <mxGeometry y="720" width="200" height="80" as="geometry" />
        </mxCell>
        <mxCell id="L4vhiQLJE88F6BMQA0AO-38" value="" style="endArrow=classic;html=1;rounded=0;exitX=0.5;exitY=1;exitDx=0;exitDy=0;entryX=0.5;entryY=0;entryDx=0;entryDy=0;" edge="1" parent="1" source="L4vhiQLJE88F6BMQA0AO-11" target="L4vhiQLJE88F6BMQA0AO-37">
          <mxGeometry width="50" height="50" relative="1" as="geometry">
            <mxPoint x="140" y="710" as="sourcePoint" />
            <mxPoint x="190" y="660" as="targetPoint" />
          </mxGeometry>
        </mxCell>
        <mxCell id="L4vhiQLJE88F6BMQA0AO-39" value="Экономия времени" style="rounded=0;whiteSpace=wrap;html=1;" vertex="1" parent="1">
          <mxGeometry x="320" y="720" width="200" height="80" as="geometry" />
        </mxCell>
        <mxCell id="L4vhiQLJE88F6BMQA0AO-40" value="Состоят из" style="text;html=1;align=center;verticalAlign=middle;resizable=0;points=[];autosize=1;strokeColor=none;fillColor=none;" vertex="1" parent="1">
          <mxGeometry x="20" y="658" width="80" height="30" as="geometry" />
        </mxCell>
        <mxCell id="L4vhiQLJE88F6BMQA0AO-41" value="" style="endArrow=classic;html=1;rounded=0;exitX=0.5;exitY=1;exitDx=0;exitDy=0;entryX=0.5;entryY=0;entryDx=0;entryDy=0;" edge="1" parent="1" source="L4vhiQLJE88F6BMQA0AO-18" target="L4vhiQLJE88F6BMQA0AO-39">
          <mxGeometry width="50" height="50" relative="1" as="geometry">
            <mxPoint x="440" y="700" as="sourcePoint" />
            <mxPoint x="490" y="650" as="targetPoint" />
          </mxGeometry>
        </mxCell>
        <mxCell id="L4vhiQLJE88F6BMQA0AO-42" value="Чему способствует" style="text;html=1;align=center;verticalAlign=middle;resizable=0;points=[];autosize=1;strokeColor=none;fillColor=none;" vertex="1" parent="1">
          <mxGeometry x="290" y="658" width="130" height="30" as="geometry" />
        </mxCell>
      </root>
    </mxGraphModel>
  </diagram>
</mxfile>
